# xmcd
#
# Track frame offsets:
# 150
# 14061
# 30789
# 48212
# 61879
# 78680
# 95375
# 111990
# 125858
# 143804
# 158736
# 172436
#
# Disc length: 2497 seconds
#
#
# Revision: 0
# Processed by: cddbd v1.5.2PL0 Copyright (c) Steve Scherf et al.
# Submitted via: FreeRIP 2.945 
#
DISCID=a409bf0c
DTITLE=Apvedceïð - Pçc Plûdiem
DYEAR=2006
DGENRE=Country
TTITLE0=Maijâ
TTITLE1=Kârtis
TTITLE2=Par tevi
TTITLE3=Pçc plûdiem
TTITLE4=Jûra un krasts
TTITLE5=Zvaigznei
TTITLE6=Mirkïi
TTITLE7=Kastaòi
TTITLE8=Es paceïu kausu
TTITLE9=Pirmais vasaras zieds
TTITLE10=Atmiòas par gaiðo
TTITLE11=Tante un opis
EXTD=
EXTT0=
EXTT1=
EXTT2=
EXTT3=
EXTT4=
EXTT5=
EXTT6=
EXTT7=
EXTT8=
EXTT9=
EXTT10=
EXTT11=
PLAYORDER=
